<svg width="25" height="25" viewBox="0 0 25 25" fill="none" xmlns="http://www.w3.org/2000/svg">
<path fill-rule="evenodd" clip-rule="evenodd" d="M17.6739 7.17488C17.7139 7.2448 17.7839 7.29475 17.8739 7.29475C20.2739 7.29475 22.2339 9.25257 22.2339 11.6499V17.5833C22.2339 19.9807 20.2739 21.9385 17.8739 21.9385H6.59389C4.18389 21.9385 2.23389 19.9807 2.23389 17.5833V11.6499C2.23389 9.25257 4.18389 7.29475 6.59389 7.29475C6.67389 7.29475 6.75389 7.25479 6.78389 7.17488L6.84389 7.05501C6.87836 6.98245 6.91375 6.90791 6.94968 6.83224C7.2055 6.2934 7.48851 5.69727 7.66389 5.34691C8.12389 4.44791 8.90389 3.94847 9.87389 3.93848H14.5839C15.5539 3.94847 16.3439 4.44791 16.8039 5.34691C16.9614 5.66155 17.2013 6.16837 17.4326 6.65687C17.4803 6.75768 17.5277 6.85772 17.5739 6.95512L17.6739 7.17488ZM16.9439 11.0106C16.9439 11.5101 17.3439 11.9096 17.8439 11.9096C18.3439 11.9096 18.7539 11.5101 18.7539 11.0106C18.7539 10.5112 18.3439 10.1016 17.8439 10.1016C17.3439 10.1016 16.9439 10.5112 16.9439 11.0106ZM10.5039 12.5589C10.9739 12.0894 11.5839 11.8397 12.2339 11.8397C12.8839 11.8397 13.4939 12.0894 13.9539 12.5489C14.4139 13.0084 14.6639 13.6177 14.6639 14.267C14.6539 15.6055 13.5739 16.6943 12.2339 16.6943C11.5839 16.6943 10.9739 16.4446 10.5139 15.9851C10.0539 15.5256 9.80389 14.9163 9.80389 14.267V14.257C9.79389 13.6277 10.0439 13.0184 10.5039 12.5589ZM15.0039 17.0439C14.2939 17.7531 13.3139 18.1926 12.2339 18.1926C11.1839 18.1926 10.2039 17.7831 9.45389 17.0439C8.71389 16.2947 8.30389 15.3158 8.30389 14.267C8.29389 13.2282 8.70389 12.2492 9.44389 11.5001C10.1939 10.7509 11.1839 10.3414 12.2339 10.3414C13.2839 10.3414 14.2739 10.7509 15.0139 11.4901C15.7539 12.2393 16.1639 13.2282 16.1639 14.267C16.1539 15.3558 15.7139 16.3347 15.0039 17.0439Z" fill="white"/>
</svg>
