<svg width="241" height="49" viewBox="0 0 241 49" fill="none" xmlns="http://www.w3.org/2000/svg">
<g clip-path="url(#clip0_358_3339)">
<path d="M0.216309 48.5V0.5H34.8045V15.0882H15.6575V19.7941H34.8045V28.2647H15.6575V48.5H0.216309Z" fill="#26B893"/>
<path d="M17.5103 29.8936H34.5887V34.2025H23.6279V44.3872H26.1769V38.3156H40.4514V48.5003H17.5103V29.8936Z" fill="#26B893"/>
<path d="M40.4517 48.5003V30.9722C43.2964 33.1684 48.8211 38.3315 48.1623 41.4144C47.5035 44.4974 42.7474 47.4229 40.4517 48.5003Z" fill="#26B893"/>
</g>
<path d="M70.2083 30H72.9443V25.456H76.3683V23.328H72.9443V20.96H77.5203V18.768H70.2083V30ZM87.6943 25.536C87.6943 22.704 85.6783 20.944 83.0543 20.944C80.4463 20.944 78.4143 22.704 78.4143 25.536C78.4143 28.368 80.3983 30.128 83.0223 30.128C85.6463 30.128 87.6943 28.368 87.6943 25.536ZM81.1983 25.536C81.1983 24.016 82.0623 23.312 83.0543 23.312C84.0143 23.312 84.9103 24.016 84.9103 25.536C84.9103 27.04 83.9983 27.76 83.0223 27.76C82.0303 27.76 81.1983 27.04 81.1983 25.536ZM91.8818 25.856C91.8818 24.32 92.6338 23.872 93.9298 23.872H94.6818V20.976C93.4818 20.976 92.5058 21.616 91.8818 22.56V21.072H89.1458V30H91.8818V25.856ZM104.806 21.072H102.07V25.92C102.07 27.136 101.398 27.808 100.342 27.808C99.3176 27.808 98.6296 27.136 98.6296 25.92V21.072H95.9096V26.288C95.9096 28.672 97.3016 30.096 99.3656 30.096C100.566 30.096 101.526 29.552 102.07 28.784V30H104.806V21.072ZM119.075 30H121.795V24.784C121.795 22.384 120.371 20.976 118.163 20.976C116.867 20.976 115.747 21.696 115.155 22.64C114.547 21.568 113.459 20.976 112.115 20.976C110.947 20.976 110.035 21.472 109.507 22.192V21.072H106.771V30H109.507V25.152C109.507 23.984 110.179 23.344 111.219 23.344C112.259 23.344 112.931 23.984 112.931 25.152V30H115.651V25.152C115.651 23.984 116.323 23.344 117.363 23.344C118.403 23.344 119.075 23.984 119.075 25.152V30ZM132.347 18.64C128.987 18.64 126.635 21.008 126.635 24.368C126.635 27.728 129.003 30.08 132.363 30.08C135.323 30.08 137.195 28.144 137.771 26.208V23.664H131.819V25.68H135.291C134.875 26.944 133.931 27.664 132.571 27.664C130.603 27.664 129.419 26.448 129.419 24.368C129.419 22.416 130.587 21.168 132.347 21.168C133.371 21.168 134.139 21.568 134.555 22.32H137.579C136.987 20.016 135.035 18.64 132.347 18.64ZM142.022 25.856C142.022 24.32 142.774 23.872 144.07 23.872H144.822V20.976C143.622 20.976 142.646 21.616 142.022 22.56V21.072H139.286V30H142.022V25.856ZM154.866 25.536C154.866 22.704 152.85 20.944 150.226 20.944C147.618 20.944 145.586 22.704 145.586 25.536C145.586 28.368 147.57 30.128 150.194 30.128C152.818 30.128 154.866 28.368 154.866 25.536ZM148.37 25.536C148.37 24.016 149.234 23.312 150.226 23.312C151.186 23.312 152.082 24.016 152.082 25.536C152.082 27.04 151.17 27.76 150.194 27.76C149.202 27.76 148.37 27.04 148.37 25.536ZM165.134 21.072H162.398V25.92C162.398 27.136 161.726 27.808 160.67 27.808C159.646 27.808 158.958 27.136 158.958 25.92V21.072H156.238V26.288C156.238 28.672 157.63 30.096 159.694 30.096C160.894 30.096 161.854 29.552 162.398 28.784V30H165.134V21.072ZM169.835 22.336V21.072H167.099V34.256H169.835V28.752C170.331 29.504 171.275 30.128 172.587 30.128C174.779 30.128 176.523 28.336 176.523 25.52C176.523 22.704 174.779 20.944 172.587 20.944C171.275 20.944 170.331 21.552 169.835 22.336ZM173.739 25.52C173.739 26.944 172.811 27.744 171.771 27.744C170.747 27.744 169.819 26.96 169.819 25.536C169.819 24.112 170.747 23.328 171.771 23.328C172.811 23.328 173.739 24.096 173.739 25.52ZM185.557 18.768H181.349V30H185.557C189.141 30 191.445 27.712 191.445 24.384C191.445 21.04 189.141 18.768 185.557 18.768ZM184.085 27.632V21.104H185.381C187.445 21.104 188.661 22.32 188.661 24.384C188.661 26.448 187.445 27.632 185.381 27.632H184.085ZM192.974 30H195.71V21.072H192.974V30ZM194.35 20.144C195.31 20.144 195.966 19.488 195.966 18.672C195.966 17.84 195.31 17.184 194.35 17.184C193.374 17.184 192.718 17.84 192.718 18.672C192.718 19.488 193.374 20.144 194.35 20.144ZM204.941 27.408C204.893 24.08 200.061 25.088 200.061 23.664C200.061 23.232 200.413 22.976 201.053 22.976C201.821 22.976 202.285 23.376 202.365 23.984H204.893C204.717 22.224 203.437 20.944 201.133 20.944C198.797 20.944 197.501 22.192 197.501 23.712C197.501 26.992 202.365 25.952 202.365 27.392C202.365 27.792 201.997 28.112 201.293 28.112C200.541 28.112 199.981 27.696 199.917 27.072H197.213C197.341 28.8 198.941 30.128 201.325 30.128C203.565 30.128 204.941 28.96 204.941 27.408ZM206.615 30H209.351V26.256L212.071 30H215.463L211.719 25.552L215.431 21.072H212.055L209.351 24.704V18.16H206.615V30ZM225.321 21.072H222.585V25.92C222.585 27.136 221.913 27.808 220.857 27.808C219.833 27.808 219.145 27.136 219.145 25.92V21.072H216.425V26.288C216.425 28.672 217.817 30.096 219.881 30.096C221.081 30.096 222.041 29.552 222.585 28.784V30H225.321V21.072ZM234.534 27.408C234.486 24.08 229.654 25.088 229.654 23.664C229.654 23.232 230.006 22.976 230.646 22.976C231.414 22.976 231.878 23.376 231.958 23.984H234.486C234.31 22.224 233.03 20.944 230.726 20.944C228.39 20.944 227.094 22.192 227.094 23.712C227.094 26.992 231.958 25.952 231.958 27.392C231.958 27.792 231.59 28.112 230.886 28.112C230.134 28.112 229.574 27.696 229.51 27.072H226.806C226.934 28.8 228.534 30.128 230.918 30.128C233.158 30.128 234.534 28.96 234.534 27.408ZM236.208 30H238.944V21.072H236.208V30ZM237.584 20.144C238.544 20.144 239.2 19.488 239.2 18.672C239.2 17.84 238.544 17.184 237.584 17.184C236.608 17.184 235.952 17.84 235.952 18.672C235.952 19.488 236.608 20.144 237.584 20.144Z" fill="#26B893"/>
<defs>
<clipPath id="clip0_358_3339">
<rect width="48" height="48" fill="white" transform="translate(0.216309 0.5)"/>
</clipPath>
</defs>
</svg>
