<svg width="241" height="48" viewBox="0 0 241 48" fill="none" xmlns="http://www.w3.org/2000/svg">
<g clip-path="url(#clip0_288_3700)">
<path d="M0.451904 48V0H35.0401V14.5882H15.8931V19.2941H35.0401V27.7647H15.8931V48H0.451904Z" fill="white"/>
<path d="M17.7458 29.3936H34.8243V33.7025H23.8635V43.8872H26.4125V37.8156H40.687V48.0003H17.7458V29.3936Z" fill="white"/>
<path d="M40.6873 47.9998V30.4717C43.532 32.6679 49.0567 37.831 48.3979 40.9139C47.7391 43.9969 42.983 46.9224 40.6873 47.9998Z" fill="white"/>
</g>
<path d="M77.7559 17.768V19.96H73.1799V22.328H76.6039V24.456H73.1799V29H70.4439V17.768H77.7559ZM83.2579 29.128C82.3832 29.128 81.5939 28.9413 80.8899 28.568C80.1966 28.1947 79.6472 27.6613 79.2419 26.968C78.8472 26.2747 78.6499 25.464 78.6499 24.536C78.6499 23.6187 78.8526 22.8133 79.2579 22.12C79.6632 21.416 80.2179 20.8773 80.9219 20.504C81.6259 20.1307 82.4152 19.944 83.2899 19.944C84.1646 19.944 84.9539 20.1307 85.6579 20.504C86.3619 20.8773 86.9166 21.416 87.3219 22.12C87.7272 22.8133 87.9299 23.6187 87.9299 24.536C87.9299 25.4533 87.7219 26.264 87.3059 26.968C86.9006 27.6613 86.3406 28.1947 85.6259 28.568C84.9219 28.9413 84.1326 29.128 83.2579 29.128ZM83.2579 26.76C83.7806 26.76 84.2232 26.568 84.5859 26.184C84.9592 25.8 85.1459 25.2507 85.1459 24.536C85.1459 23.8213 84.9646 23.272 84.6019 22.888C84.2499 22.504 83.8126 22.312 83.2899 22.312C82.7566 22.312 82.3139 22.504 81.9619 22.888C81.6099 23.2613 81.4339 23.8107 81.4339 24.536C81.4339 25.2507 81.6046 25.8 81.9459 26.184C82.2979 26.568 82.7352 26.76 83.2579 26.76ZM92.1174 21.56C92.4374 21.0693 92.8374 20.6853 93.3174 20.408C93.7974 20.12 94.3307 19.976 94.9174 19.976V22.872H94.1654C93.4827 22.872 92.9707 23.0213 92.6294 23.32C92.2881 23.608 92.1174 24.12 92.1174 24.856V29H89.3814V20.072H92.1174V21.56ZM105.041 20.072V29H102.305V27.784C102.028 28.1787 101.649 28.4987 101.169 28.744C100.7 28.9787 100.177 29.096 99.6012 29.096C98.9185 29.096 98.3158 28.9467 97.7932 28.648C97.2705 28.3387 96.8652 27.896 96.5772 27.32C96.2892 26.744 96.1452 26.0667 96.1452 25.288V20.072H98.8652V24.92C98.8652 25.5173 99.0198 25.9813 99.3292 26.312C99.6385 26.6427 100.054 26.808 100.577 26.808C101.11 26.808 101.532 26.6427 101.841 26.312C102.15 25.9813 102.305 25.5173 102.305 24.92V20.072H105.041ZM118.398 19.976C119.508 19.976 120.388 20.312 121.038 20.984C121.7 21.656 122.03 22.5893 122.03 23.784V29H119.31V24.152C119.31 23.576 119.156 23.1333 118.846 22.824C118.548 22.504 118.132 22.344 117.598 22.344C117.065 22.344 116.644 22.504 116.334 22.824C116.036 23.1333 115.886 23.576 115.886 24.152V29H113.166V24.152C113.166 23.576 113.012 23.1333 112.702 22.824C112.404 22.504 111.988 22.344 111.454 22.344C110.921 22.344 110.5 22.504 110.19 22.824C109.892 23.1333 109.742 23.576 109.742 24.152V29H107.006V20.072H109.742V21.192C110.02 20.8187 110.382 20.5253 110.83 20.312C111.278 20.088 111.785 19.976 112.35 19.976C113.022 19.976 113.62 20.12 114.142 20.408C114.676 20.696 115.092 21.1067 115.39 21.64C115.7 21.1493 116.121 20.7493 116.654 20.44C117.188 20.1307 117.769 19.976 118.398 19.976ZM134.791 21.32C134.588 20.9467 134.295 20.664 133.911 20.472C133.537 20.2693 133.095 20.168 132.583 20.168C131.697 20.168 130.988 20.4613 130.455 21.048C129.921 21.624 129.655 22.3973 129.655 23.368C129.655 24.4027 129.932 25.2133 130.487 25.8C131.052 26.376 131.825 26.664 132.807 26.664C133.479 26.664 134.044 26.4933 134.503 26.152C134.972 25.8107 135.313 25.32 135.527 24.68H132.055V22.664H138.007V25.208C137.804 25.8907 137.457 26.5253 136.967 27.112C136.487 27.6987 135.873 28.1733 135.127 28.536C134.38 28.8987 133.537 29.08 132.599 29.08C131.489 29.08 130.497 28.84 129.623 28.36C128.759 27.8693 128.081 27.192 127.591 26.328C127.111 25.464 126.871 24.4773 126.871 23.368C126.871 22.2587 127.111 21.272 127.591 20.408C128.081 19.5333 128.759 18.856 129.623 18.376C130.487 17.8853 131.473 17.64 132.583 17.64C133.927 17.64 135.057 17.9653 135.975 18.616C136.903 19.2667 137.516 20.168 137.815 21.32H134.791ZM142.258 21.56C142.578 21.0693 142.978 20.6853 143.458 20.408C143.938 20.12 144.471 19.976 145.058 19.976V22.872H144.306C143.623 22.872 143.111 23.0213 142.77 23.32C142.429 23.608 142.258 24.12 142.258 24.856V29H139.522V20.072H142.258V21.56ZM150.43 29.128C149.555 29.128 148.766 28.9413 148.062 28.568C147.368 28.1947 146.819 27.6613 146.414 26.968C146.019 26.2747 145.822 25.464 145.822 24.536C145.822 23.6187 146.024 22.8133 146.43 22.12C146.835 21.416 147.39 20.8773 148.094 20.504C148.798 20.1307 149.587 19.944 150.462 19.944C151.336 19.944 152.126 20.1307 152.83 20.504C153.534 20.8773 154.088 21.416 154.494 22.12C154.899 22.8133 155.102 23.6187 155.102 24.536C155.102 25.4533 154.894 26.264 154.478 26.968C154.072 27.6613 153.512 28.1947 152.798 28.568C152.094 28.9413 151.304 29.128 150.43 29.128ZM150.43 26.76C150.952 26.76 151.395 26.568 151.758 26.184C152.131 25.8 152.318 25.2507 152.318 24.536C152.318 23.8213 152.136 23.272 151.774 22.888C151.422 22.504 150.984 22.312 150.462 22.312C149.928 22.312 149.486 22.504 149.134 22.888C148.782 23.2613 148.606 23.8107 148.606 24.536C148.606 25.2507 148.776 25.8 149.118 26.184C149.47 26.568 149.907 26.76 150.43 26.76ZM165.369 20.072V29H162.633V27.784C162.356 28.1787 161.977 28.4987 161.497 28.744C161.028 28.9787 160.505 29.096 159.929 29.096C159.247 29.096 158.644 28.9467 158.121 28.648C157.599 28.3387 157.193 27.896 156.905 27.32C156.617 26.744 156.473 26.0667 156.473 25.288V20.072H159.193V24.92C159.193 25.5173 159.348 25.9813 159.657 26.312C159.967 26.6427 160.383 26.808 160.905 26.808C161.439 26.808 161.86 26.6427 162.169 26.312C162.479 25.9813 162.633 25.5173 162.633 24.92V20.072H165.369ZM170.071 21.336C170.337 20.92 170.705 20.584 171.175 20.328C171.644 20.072 172.193 19.944 172.823 19.944C173.559 19.944 174.225 20.1307 174.823 20.504C175.42 20.8773 175.889 21.4107 176.231 22.104C176.583 22.7973 176.759 23.6027 176.759 24.52C176.759 25.4373 176.583 26.248 176.231 26.952C175.889 27.6453 175.42 28.184 174.823 28.568C174.225 28.9413 173.559 29.128 172.823 29.128C172.204 29.128 171.655 29 171.175 28.744C170.705 28.488 170.337 28.1573 170.071 27.752V33.256H167.335V20.072H170.071V21.336ZM173.975 24.52C173.975 23.8373 173.783 23.304 173.399 22.92C173.025 22.5253 172.561 22.328 172.007 22.328C171.463 22.328 170.999 22.5253 170.615 22.92C170.241 23.3147 170.055 23.8533 170.055 24.536C170.055 25.2187 170.241 25.7573 170.615 26.152C170.999 26.5467 171.463 26.744 172.007 26.744C172.551 26.744 173.015 26.5467 173.399 26.152C173.783 25.7467 173.975 25.2027 173.975 24.52ZM185.793 17.768C186.977 17.768 188.011 18.0027 188.897 18.472C189.782 18.9413 190.465 19.6027 190.945 20.456C191.435 21.2987 191.681 22.2747 191.681 23.384C191.681 24.4827 191.435 25.4587 190.945 26.312C190.465 27.1653 189.777 27.8267 188.881 28.296C187.995 28.7653 186.966 29 185.793 29H181.585V17.768H185.793ZM185.617 26.632C186.651 26.632 187.457 26.3493 188.033 25.784C188.609 25.2187 188.897 24.4187 188.897 23.384C188.897 22.3493 188.609 21.544 188.033 20.968C187.457 20.392 186.651 20.104 185.617 20.104H184.321V26.632H185.617ZM194.586 19.144C194.106 19.144 193.711 19.0053 193.402 18.728C193.103 18.44 192.954 18.088 192.954 17.672C192.954 17.2453 193.103 16.8933 193.402 16.616C193.711 16.328 194.106 16.184 194.586 16.184C195.055 16.184 195.439 16.328 195.738 16.616C196.047 16.8933 196.202 17.2453 196.202 17.672C196.202 18.088 196.047 18.44 195.738 18.728C195.439 19.0053 195.055 19.144 194.586 19.144ZM195.946 20.072V29H193.21V20.072H195.946ZM201.56 29.128C200.782 29.128 200.088 28.9947 199.48 28.728C198.872 28.4613 198.392 28.0987 198.04 27.64C197.688 27.1707 197.491 26.648 197.448 26.072H200.152C200.184 26.3813 200.328 26.632 200.584 26.824C200.84 27.016 201.155 27.112 201.528 27.112C201.87 27.112 202.131 27.048 202.312 26.92C202.504 26.7813 202.6 26.6053 202.6 26.392C202.6 26.136 202.467 25.9493 202.2 25.832C201.934 25.704 201.502 25.5653 200.904 25.416C200.264 25.2667 199.731 25.112 199.304 24.952C198.878 24.7813 198.51 24.52 198.2 24.168C197.891 23.8053 197.736 23.32 197.736 22.712C197.736 22.2 197.875 21.736 198.152 21.32C198.44 20.8933 198.856 20.5573 199.4 20.312C199.955 20.0667 200.611 19.944 201.368 19.944C202.488 19.944 203.368 20.2213 204.008 20.776C204.659 21.3307 205.032 22.0667 205.128 22.984H202.6C202.558 22.6747 202.419 22.4293 202.184 22.248C201.96 22.0667 201.662 21.976 201.288 21.976C200.968 21.976 200.723 22.04 200.552 22.168C200.382 22.2853 200.296 22.4507 200.296 22.664C200.296 22.92 200.43 23.112 200.696 23.24C200.974 23.368 201.4 23.496 201.976 23.624C202.638 23.7947 203.176 23.9653 203.592 24.136C204.008 24.296 204.371 24.5627 204.68 24.936C205 25.2987 205.166 25.7893 205.176 26.408C205.176 26.9307 205.027 27.4 204.728 27.816C204.44 28.2213 204.019 28.5413 203.464 28.776C202.92 29.0107 202.286 29.128 201.56 29.128ZM212.306 29L209.586 25.256V29H206.85V17.16H209.586V23.704L212.29 20.072H215.666L211.954 24.552L215.698 29H212.306ZM225.557 20.072V29H222.821V27.784C222.543 28.1787 222.165 28.4987 221.685 28.744C221.215 28.9787 220.693 29.096 220.117 29.096C219.434 29.096 218.831 28.9467 218.309 28.648C217.786 28.3387 217.381 27.896 217.093 27.32C216.805 26.744 216.661 26.0667 216.661 25.288V20.072H219.381V24.92C219.381 25.5173 219.535 25.9813 219.845 26.312C220.154 26.6427 220.57 26.808 221.093 26.808C221.626 26.808 222.047 26.6427 222.357 26.312C222.666 25.9813 222.821 25.5173 222.821 24.92V20.072H225.557ZM231.154 29.128C230.375 29.128 229.682 28.9947 229.074 28.728C228.466 28.4613 227.986 28.0987 227.634 27.64C227.282 27.1707 227.085 26.648 227.042 26.072H229.746C229.778 26.3813 229.922 26.632 230.178 26.824C230.434 27.016 230.749 27.112 231.122 27.112C231.463 27.112 231.725 27.048 231.906 26.92C232.098 26.7813 232.194 26.6053 232.194 26.392C232.194 26.136 232.061 25.9493 231.794 25.832C231.527 25.704 231.095 25.5653 230.498 25.416C229.858 25.2667 229.325 25.112 228.898 24.952C228.471 24.7813 228.103 24.52 227.794 24.168C227.485 23.8053 227.33 23.32 227.33 22.712C227.33 22.2 227.469 21.736 227.746 21.32C228.034 20.8933 228.45 20.5573 228.994 20.312C229.549 20.0667 230.205 19.944 230.962 19.944C232.082 19.944 232.962 20.2213 233.602 20.776C234.253 21.3307 234.626 22.0667 234.722 22.984H232.194C232.151 22.6747 232.013 22.4293 231.778 22.248C231.554 22.0667 231.255 21.976 230.882 21.976C230.562 21.976 230.317 22.04 230.146 22.168C229.975 22.2853 229.89 22.4507 229.89 22.664C229.89 22.92 230.023 23.112 230.29 23.24C230.567 23.368 230.994 23.496 231.57 23.624C232.231 23.7947 232.77 23.9653 233.186 24.136C233.602 24.296 233.965 24.5627 234.274 24.936C234.594 25.2987 234.759 25.7893 234.77 26.408C234.77 26.9307 234.621 27.4 234.322 27.816C234.034 28.2213 233.613 28.5413 233.058 28.776C232.514 29.0107 231.879 29.128 231.154 29.128ZM237.82 19.144C237.34 19.144 236.945 19.0053 236.636 18.728C236.337 18.44 236.188 18.088 236.188 17.672C236.188 17.2453 236.337 16.8933 236.636 16.616C236.945 16.328 237.34 16.184 237.82 16.184C238.289 16.184 238.673 16.328 238.972 16.616C239.281 16.8933 239.436 17.2453 239.436 17.672C239.436 18.088 239.281 18.44 238.972 18.728C238.673 19.0053 238.289 19.144 237.82 19.144ZM239.18 20.072V29H236.444V20.072H239.18Z" fill="white"/>
<defs>
<clipPath id="clip0_288_3700">
<rect width="48" height="48" fill="white" transform="translate(0.451904)"/>
</clipPath>
</defs>
</svg>
