<svg width="28" height="28" viewBox="0 0 28 28" fill="none" xmlns="http://www.w3.org/2000/svg">
<path d="M13.7563 11.4338V22.8045" stroke="#26B893" stroke-width="2" stroke-linecap="round" stroke-linejoin="round"/>
<path d="M13.7563 4.27441V7.22236" stroke="#26B893" stroke-width="2" stroke-linecap="round" stroke-linejoin="round"/>
<path d="M13.7563 11.4338C14.9213 11.4338 15.8657 10.491 15.8657 9.32809C15.8657 8.16515 14.9213 7.22241 13.7563 7.22241C12.5914 7.22241 11.647 8.16515 11.647 9.32809C11.647 10.491 12.5914 11.4338 13.7563 11.4338Z" stroke="#26B893" stroke-width="2" stroke-linecap="round" stroke-linejoin="round"/>
<path d="M21.3501 19.8564V22.8044" stroke="#26B893" stroke-width="2" stroke-linecap="round" stroke-linejoin="round"/>
<path d="M21.3501 4.27441V15.6451" stroke="#26B893" stroke-width="2" stroke-linecap="round" stroke-linejoin="round"/>
<path d="M21.3501 19.8564C22.5151 19.8564 23.4595 18.9136 23.4595 17.7507C23.4595 16.5878 22.5151 15.645 21.3501 15.645C20.1851 15.645 19.2407 16.5878 19.2407 17.7507C19.2407 18.9136 20.1851 19.8564 21.3501 19.8564Z" stroke="#26B893" stroke-width="2" stroke-linecap="round" stroke-linejoin="round"/>
<path d="M6.1626 16.4875V22.8046" stroke="#26B893" stroke-width="2" stroke-linecap="round" stroke-linejoin="round"/>
<path d="M6.1626 4.27441V12.276" stroke="#26B893" stroke-width="2" stroke-linecap="round" stroke-linejoin="round"/>
<path d="M6.1626 16.4875C7.32757 16.4875 8.27197 15.5447 8.27197 14.3818C8.27197 13.2189 7.32757 12.2761 6.1626 12.2761C4.99762 12.2761 4.05322 13.2189 4.05322 14.3818C4.05322 15.5447 4.99762 16.4875 6.1626 16.4875Z" stroke="#26B893" stroke-width="2" stroke-linecap="round" stroke-linejoin="round"/>
</svg>
